<svg width="838" height="200" viewBox="0 0 838 200" fill="none" xmlns="http://www.w3.org/2000/svg">
<path d="M297.6 76H325.76L301.28 156H275.36L263.84 115.36L252.32 156H226.4L201.92 76H230.08L240.64 119.52L252.64 76H275.04L287.04 119.52L297.6 76ZM370.466 158.24C358.626 158.24 348.546 154.187 340.226 146.08C331.906 137.867 327.746 127.84 327.746 116C327.746 104.16 331.906 94.1867 340.226 86.08C348.546 77.8667 358.626 73.76 370.466 73.76C382.413 73.76 392.493 77.8667 400.706 86.08C409.026 94.1867 413.186 104.16 413.186 116C413.186 127.84 409.026 137.867 400.706 146.08C392.493 154.187 382.413 158.24 370.466 158.24ZM370.466 132.64C375.16 132.64 379 131.093 381.986 128C385.08 124.907 386.626 120.907 386.626 116C386.626 111.093 385.08 107.093 381.986 104C379 100.907 375.16 99.36 370.466 99.36C365.88 99.36 362.04 100.907 358.946 104C355.96 107.093 354.466 111.093 354.466 116C354.466 120.907 355.96 124.907 358.946 128C362.04 131.093 365.88 132.64 370.466 132.64ZM451.428 90.88C452.921 85.6533 455.908 81.6 460.388 78.72C464.868 75.84 469.881 74.4 475.428 74.4V103.84C469.348 102.88 463.801 104 458.788 107.2C453.881 110.4 451.428 115.627 451.428 122.88V156H424.868V76H451.428V90.88ZM564.533 156H534.773L512.053 121.92V156H485.493V44H512.053V109.44L532.693 76H563.413L536.533 116L564.533 156ZM617.331 66.24C608.158 65.6 603.571 68.8533 603.571 76H617.331V101.44H603.571V156H577.011V101.44H566.931V76H577.011C577.011 64.48 580.371 55.68 587.091 49.6C593.918 43.52 603.998 40.8533 617.331 41.6V66.24ZM662.341 158.24C650.501 158.24 640.421 154.187 632.101 146.08C623.781 137.867 619.621 127.84 619.621 116C619.621 104.16 623.781 94.1867 632.101 86.08C640.421 77.8667 650.501 73.76 662.341 73.76C674.288 73.76 684.368 77.8667 692.581 86.08C700.901 94.1867 705.061 104.16 705.061 116C705.061 127.84 700.901 137.867 692.581 146.08C684.368 154.187 674.288 158.24 662.341 158.24ZM662.341 132.64C667.035 132.64 670.875 131.093 673.861 128C676.955 124.907 678.501 120.907 678.501 116C678.501 111.093 676.955 107.093 673.861 104C670.875 100.907 667.035 99.36 662.341 99.36C657.755 99.36 653.915 100.907 650.821 104C647.835 107.093 646.341 111.093 646.341 116C646.341 120.907 647.835 124.907 650.821 128C653.915 131.093 657.755 132.64 662.341 132.64ZM791.278 156H761.198L747.278 136.32L733.358 156H703.438L732.398 115.2L704.558 76H734.478L747.278 94.08L760.078 76H790.158L762.318 115.2L791.278 156ZM814.45 158.24C809.757 158.24 805.757 156.64 802.45 153.44C799.25 150.133 797.65 146.187 797.65 141.6C797.65 137.013 799.303 133.12 802.61 129.92C805.917 126.613 809.863 124.96 814.45 124.96C819.037 124.96 822.93 126.613 826.13 129.92C829.437 133.12 831.09 137.013 831.09 141.6C831.09 146.187 829.437 150.133 826.13 153.44C822.93 156.64 819.037 158.24 814.45 158.24Z" fill="#FFFF00"/>
<path d="M69.9938 185.251L83.2773 189.849L95.5389 185.251C98.4 150.918 125.682 142.335 138.966 142.335C134.879 139.474 125.682 139.099 121.595 139.269C127.726 133.547 152.42 126.326 164 123.431C131.711 108.308 148.162 58.2053 160.424 35.0445C142.031 35.0445 119.722 49.6904 110.866 57.0134C88.795 52.5171 64.2035 55.1399 54.6667 57.0134C31.7782 38.2121 11.0696 34.5336 3.57632 35.0445C33.0044 95.5355 13.4538 119.173 0 123.431C27.5888 128.54 48.5358 139.78 43.9377 139.269C40.2592 138.861 31.8463 141.143 28.0997 142.335C58.3452 143.561 68.6314 171.456 69.9938 185.251Z" fill="#FFFF00"/>
<path d="M69.4868 125.986C66.7619 120.196 57.2251 107.798 40.8762 104.528C41.898 109.978 49.0507 121.899 69.4868 125.986Z" fill="black" stroke="black"/>
<path d="M94.5192 125.974C97.4366 120.278 107.384 108.207 123.833 105.487C122.629 110.9 115.081 122.574 94.5192 125.974Z" fill="black" stroke="black"/>
</svg>
